<svg width="17" height="20" viewBox="0 0 17 20" fill="none" xmlns="http://www.w3.org/2000/svg">
<path fill-rule="evenodd" clip-rule="evenodd" d="M8.3747 0.000305176C10.6307 0.000305176 12.6447 1.43331 13.3837 3.56731C13.5197 3.95831 13.3117 4.38531 12.9197 4.52131C12.5287 4.65831 12.1017 4.44931 11.9657 4.05731C11.4367 2.52831 9.9917 1.50031 8.3717 1.50031H8.3577C6.2657 1.50031 4.5617 3.19431 4.5527 5.28431L4.552 6.62631L12.184 6.62701C14.688 6.62701 16.726 8.665 16.726 11.17V15.458C16.726 17.963 14.688 20.001 12.184 20.001H4.542C2.037 20.001 0 17.963 0 15.458V11.17C0 9.18661 1.277 7.49599 3.05221 6.87792L3.0527 5.30131C3.0657 2.36331 5.4417 0.000305176 8.3547 0.000305176H8.3747ZM12.184 8.127H4.542C2.864 8.127 1.5 9.492 1.5 11.17V15.458C1.5 17.136 2.864 18.501 4.542 18.501H12.184C13.861 18.501 15.226 17.136 15.226 15.458V11.17C15.226 9.492 13.861 8.127 12.184 8.127ZM8.3633 11.4528C8.7773 11.4528 9.1133 11.7888 9.1133 12.2028V14.4248C9.1133 14.8388 8.7773 15.1748 8.3633 15.1748C7.9493 15.1748 7.6133 14.8388 7.6133 14.4248V12.2028C7.6133 11.7888 7.9493 11.4528 8.3633 11.4528Z" fill="#FEFEFE"/>
</svg>
