<svg width="24" height="24" viewBox="0 0 24 24" fill="none" xmlns="http://www.w3.org/2000/svg">
<path fill-rule="evenodd" clip-rule="evenodd" d="M12.3747 2.00031C14.6307 2.00031 16.6447 3.43331 17.3837 5.56731C17.5197 5.95831 17.3117 6.38531 16.9197 6.52131C16.5287 6.65831 16.1017 6.44931 15.9657 6.05731C15.4367 4.52831 13.9917 3.50031 12.3717 3.50031H12.3577C10.2657 3.50031 8.5617 5.19431 8.5527 7.28431L8.552 8.62631L16.184 8.62701C18.688 8.62701 20.726 10.665 20.726 13.17V17.458C20.726 19.963 18.688 22.001 16.184 22.001H8.542C6.037 22.001 4 19.963 4 17.458V13.17C4 11.1866 5.277 9.49599 7.05221 8.87792L7.0527 7.30131C7.0657 4.36331 9.4417 2.00031 12.3547 2.00031H12.3747ZM16.184 10.127H8.542C6.864 10.127 5.5 11.492 5.5 13.17V17.458C5.5 19.136 6.864 20.501 8.542 20.501H16.184C17.861 20.501 19.226 19.136 19.226 17.458V13.17C19.226 11.492 17.861 10.127 16.184 10.127ZM12.3633 13.4528C12.7773 13.4528 13.1133 13.7888 13.1133 14.2028V16.4248C13.1133 16.8388 12.7773 17.1748 12.3633 17.1748C11.9493 17.1748 11.6133 16.8388 11.6133 16.4248V14.2028C11.6133 13.7888 11.9493 13.4528 12.3633 13.4528Z" fill="#111111"/>
</svg>
