<svg width="16" height="16" viewBox="0 0 16 16" fill="none" xmlns="http://www.w3.org/2000/svg">
<path d="M12 2.66665H11.3333V1.99998C11.3333 1.82317 11.2631 1.6536 11.1381 1.52858C11.013 1.40355 10.8435 1.33331 10.6667 1.33331C10.4899 1.33331 10.3203 1.40355 10.1953 1.52858C10.0702 1.6536 10 1.82317 10 1.99998V2.66665H6V1.99998C6 1.82317 5.92976 1.6536 5.80474 1.52858C5.67971 1.40355 5.51014 1.33331 5.33333 1.33331C5.15652 1.33331 4.98695 1.40355 4.86193 1.52858C4.7369 1.6536 4.66667 1.82317 4.66667 1.99998V2.66665H4C3.46957 2.66665 2.96086 2.87736 2.58579 3.25243C2.21071 3.62751 2 4.13621 2 4.66665V12.6666C2 13.1971 2.21071 13.7058 2.58579 14.0809C2.96086 14.4559 3.46957 14.6666 4 14.6666H12C12.5304 14.6666 13.0391 14.4559 13.4142 14.0809C13.7893 13.7058 14 13.1971 14 12.6666V4.66665C14 4.13621 13.7893 3.62751 13.4142 3.25243C13.0391 2.87736 12.5304 2.66665 12 2.66665ZM5.33333 11.3333C5.20148 11.3333 5.07259 11.2942 4.96295 11.221C4.85332 11.1477 4.76787 11.0436 4.71741 10.9218C4.66696 10.8 4.65375 10.6659 4.67948 10.5366C4.7052 10.4073 4.76869 10.2885 4.86193 10.1952C4.95516 10.102 5.07395 10.0385 5.20327 10.0128C5.33259 9.98707 5.46664 10.0003 5.58846 10.0507C5.71027 10.1012 5.81439 10.1866 5.88765 10.2963C5.9609 10.4059 6 10.5348 6 10.6666C6 10.8435 5.92976 11.013 5.80474 11.1381C5.67971 11.2631 5.51014 11.3333 5.33333 11.3333ZM10.6667 11.3333H8C7.82319 11.3333 7.65362 11.2631 7.5286 11.1381C7.40357 11.013 7.33333 10.8435 7.33333 10.6666C7.33333 10.4898 7.40357 10.3203 7.5286 10.1952C7.65362 10.0702 7.82319 9.99998 8 9.99998H10.6667C10.8435 9.99998 11.013 10.0702 11.1381 10.1952C11.2631 10.3203 11.3333 10.4898 11.3333 10.6666C11.3333 10.8435 11.2631 11.013 11.1381 11.1381C11.013 11.2631 10.8435 11.3333 10.6667 11.3333ZM12.6667 7.33331H3.33333V4.66665C3.33333 4.48984 3.40357 4.32027 3.5286 4.19524C3.65362 4.07022 3.82319 3.99998 4 3.99998H4.66667V4.66665C4.66667 4.84346 4.7369 5.01303 4.86193 5.13805C4.98695 5.26308 5.15652 5.33331 5.33333 5.33331C5.51014 5.33331 5.67971 5.26308 5.80474 5.13805C5.92976 5.01303 6 4.84346 6 4.66665V3.99998H10V4.66665C10 4.84346 10.0702 5.01303 10.1953 5.13805C10.3203 5.26308 10.4899 5.33331 10.6667 5.33331C10.8435 5.33331 11.013 5.26308 11.1381 5.13805C11.2631 5.01303 11.3333 4.84346 11.3333 4.66665V3.99998H12C12.1768 3.99998 12.3464 4.07022 12.4714 4.19524C12.5964 4.32027 12.6667 4.48984 12.6667 4.66665V7.33331Z" fill="#434E58"/>
</svg>
