<svg width="21" height="21" viewBox="0 0 21 21" fill="none" xmlns="http://www.w3.org/2000/svg">
<path fill-rule="evenodd" clip-rule="evenodd" d="M5.21653 14.0029C5.05653 14.0029 4.89553 13.9519 4.75953 13.8479C4.43153 13.5949 4.36953 13.1239 4.62253 12.7959L7.61553 8.9059C7.73753 8.7469 7.91853 8.6439 8.11653 8.6189C8.31853 8.5929 8.51653 8.6489 8.67353 8.7739L11.4935 10.9889L13.9605 7.8059C14.2145 7.4769 14.6845 7.4159 15.0125 7.6719C15.3405 7.9259 15.4005 8.3969 15.1465 8.7239L12.2165 12.5039C12.0945 12.6619 11.9145 12.7649 11.7165 12.7889C11.5165 12.8159 11.3185 12.7579 11.1605 12.6349L8.34253 10.4209L5.81153 13.7099C5.66353 13.9019 5.44153 14.0029 5.21653 14.0029Z" fill="#111111"/>
<mask id="mask0_30020_3011" style="mask-type:alpha" maskUnits="userSpaceOnUse" x="15" y="0" width="6" height="6">
<path fill-rule="evenodd" clip-rule="evenodd" d="M15.2949 9.15527e-05H20.6389V5.34499H15.2949V9.15527e-05Z" fill="white"/>
</mask>
<g mask="url(#mask0_30020_3011)">
<path fill-rule="evenodd" clip-rule="evenodd" d="M17.9669 1.5C17.3209 1.5 16.7949 2.025 16.7949 2.672C16.7949 3.318 17.3209 3.845 17.9669 3.845C18.6129 3.845 19.1389 3.318 19.1389 2.672C19.1389 2.025 18.6129 1.5 17.9669 1.5ZM17.9669 5.345C16.4939 5.345 15.2949 4.146 15.2949 2.672C15.2949 1.198 16.4939 0 17.9669 0C19.4409 0 20.6389 1.198 20.6389 2.672C20.6389 4.146 19.4409 5.345 17.9669 5.345Z" fill="#111111"/>
</g>
<mask id="mask1_30020_3011" style="mask-type:alpha" maskUnits="userSpaceOnUse" x="0" y="0" width="20" height="21">
<path fill-rule="evenodd" clip-rule="evenodd" d="M0 0.842102H19.8619V20.7031H0V0.842102Z" fill="white"/>
</mask>
<g mask="url(#mask1_30020_3011)">
<path fill-rule="evenodd" clip-rule="evenodd" d="M14.233 20.7031H5.629C2.262 20.7031 0 18.3381 0 14.8181V6.7361C0 3.2111 2.262 0.842102 5.629 0.842102H12.897C13.311 0.842102 13.647 1.1781 13.647 1.5921C13.647 2.0061 13.311 2.3421 12.897 2.3421H5.629C3.121 2.3421 1.5 4.0661 1.5 6.7361V14.8181C1.5 17.5231 3.082 19.2031 5.629 19.2031H14.233C16.741 19.2031 18.362 17.4821 18.362 14.8181V7.7791C18.362 7.3651 18.698 7.0291 19.112 7.0291C19.526 7.0291 19.862 7.3651 19.862 7.7791V14.8181C19.862 18.3381 17.6 20.7031 14.233 20.7031Z" fill="#111111"/>
</g>
</svg>
