<svg width="327" height="60" viewBox="0 0 327 60" fill="none" xmlns="http://www.w3.org/2000/svg">
<rect x="0.5" y="0.5" width="326" height="59" rx="29.5" fill="#FEFEFE"/>
<path d="M133.328 37V25.08H134.896V35.56H140.128V37H133.328ZM145.891 37.192C145.058 37.192 144.306 37 143.635 36.616C142.963 36.2213 142.429 35.6827 142.035 35C141.64 34.3173 141.442 33.544 141.442 32.68C141.442 31.816 141.634 31.048 142.018 30.376C142.413 29.704 142.946 29.1707 143.618 28.776C144.291 28.3813 145.048 28.184 145.891 28.184C146.723 28.184 147.475 28.3813 148.147 28.776C148.819 29.16 149.347 29.688 149.731 30.36C150.125 31.032 150.323 31.8053 150.323 32.68C150.323 33.5547 150.12 34.3333 149.715 35.016C149.309 35.688 148.771 36.2213 148.099 36.616C147.437 37 146.701 37.192 145.891 37.192ZM145.891 35.752C146.424 35.752 146.904 35.6187 147.331 35.352C147.768 35.0853 148.109 34.7173 148.355 34.248C148.611 33.7787 148.739 33.256 148.739 32.68C148.739 32.0933 148.611 31.576 148.355 31.128C148.109 30.6693 147.768 30.3067 147.331 30.04C146.904 29.7627 146.424 29.624 145.891 29.624C145.347 29.624 144.856 29.7627 144.419 30.04C143.992 30.3067 143.651 30.6693 143.395 31.128C143.138 31.576 143.01 32.0933 143.01 32.68C143.01 33.256 143.138 33.7787 143.395 34.248C143.651 34.7173 143.992 35.0853 144.419 35.352C144.856 35.6187 145.347 35.752 145.891 35.752ZM156.455 40.52C155.847 40.52 155.282 40.424 154.759 40.232C154.247 40.04 153.805 39.7733 153.431 39.432C153.069 39.1013 152.791 38.712 152.599 38.264L153.991 37.624C154.141 38.0293 154.423 38.3707 154.839 38.648C155.266 38.936 155.799 39.08 156.439 39.08C156.93 39.08 157.373 38.984 157.767 38.792C158.173 38.6107 158.493 38.3333 158.727 37.96C158.962 37.5973 159.079 37.1547 159.079 36.632V34.696L159.351 34.984C159.053 35.5707 158.621 36.0187 158.055 36.328C157.501 36.6373 156.887 36.792 156.215 36.792C155.405 36.792 154.679 36.6053 154.039 36.232C153.399 35.848 152.898 35.3307 152.535 34.68C152.173 34.0187 151.991 33.288 151.991 32.488C151.991 31.6773 152.173 30.9467 152.535 30.296C152.898 29.6453 153.394 29.1333 154.023 28.76C154.663 28.376 155.389 28.184 156.199 28.184C156.871 28.184 157.479 28.3387 158.023 28.648C158.578 28.9467 159.021 29.3627 159.351 29.896L159.127 30.296V28.376H160.583V36.632C160.583 37.3787 160.407 38.0453 160.055 38.632C159.703 39.2187 159.213 39.6773 158.583 40.008C157.965 40.3493 157.255 40.52 156.455 40.52ZM156.343 35.352C156.855 35.352 157.314 35.224 157.719 34.968C158.135 34.712 158.466 34.3707 158.711 33.944C158.957 33.5067 159.079 33.0213 159.079 32.488C159.079 31.9653 158.957 31.4853 158.711 31.048C158.466 30.6107 158.135 30.264 157.719 30.008C157.314 29.752 156.855 29.624 156.343 29.624C155.821 29.624 155.346 29.752 154.919 30.008C154.493 30.264 154.157 30.6107 153.911 31.048C153.677 31.4747 153.559 31.9547 153.559 32.488C153.559 33.0213 153.677 33.5067 153.911 33.944C154.157 34.3707 154.487 34.712 154.903 34.968C155.33 35.224 155.81 35.352 156.343 35.352ZM171.688 37.192C170.845 37.192 170.056 37.0427 169.32 36.744C168.584 36.4347 167.938 36.0027 167.384 35.448C166.84 34.8933 166.413 34.2427 166.104 33.496C165.794 32.7387 165.64 31.9173 165.64 31.032C165.64 30.136 165.794 29.3147 166.104 28.568C166.413 27.8213 166.84 27.1707 167.384 26.616C167.938 26.0613 168.578 25.6347 169.304 25.336C170.04 25.0373 170.834 24.888 171.688 24.888C172.541 24.888 173.33 25.0427 174.056 25.352C174.792 25.6507 175.432 26.0773 175.976 26.632C176.53 27.176 176.962 27.8213 177.272 28.568C177.592 29.3147 177.752 30.136 177.752 31.032C177.752 31.9173 177.592 32.7387 177.272 33.496C176.962 34.2427 176.53 34.8933 175.976 35.448C175.432 36.0027 174.792 36.4347 174.056 36.744C173.33 37.0427 172.541 37.192 171.688 37.192ZM171.688 35.736C172.349 35.736 172.952 35.6187 173.496 35.384C174.04 35.1387 174.509 34.8027 174.904 34.376C175.309 33.9387 175.618 33.4373 175.832 32.872C176.056 32.296 176.168 31.6827 176.168 31.032C176.168 30.3813 176.056 29.7733 175.832 29.208C175.618 28.6427 175.309 28.1467 174.904 27.72C174.509 27.2827 174.04 26.9467 173.496 26.712C172.952 26.4667 172.349 26.344 171.688 26.344C171.037 26.344 170.44 26.4667 169.896 26.712C169.352 26.9467 168.877 27.2827 168.472 27.72C168.077 28.1467 167.768 28.6427 167.544 29.208C167.32 29.7733 167.208 30.3813 167.208 31.032C167.208 31.6827 167.32 32.296 167.544 32.872C167.768 33.4373 168.077 33.9387 168.472 34.376C168.877 34.8027 169.352 35.1387 169.896 35.384C170.44 35.6187 171.037 35.736 171.688 35.736ZM182.999 37.192C182.38 37.192 181.82 37.048 181.319 36.76C180.828 36.472 180.444 36.072 180.167 35.56C179.9 35.0373 179.767 34.44 179.767 33.768V28.376H181.255V33.608C181.255 34.0347 181.34 34.408 181.511 34.728C181.692 35.048 181.937 35.2987 182.247 35.48C182.567 35.6613 182.929 35.752 183.335 35.752C183.74 35.752 184.097 35.6613 184.407 35.48C184.727 35.2987 184.972 35.0373 185.143 34.696C185.324 34.3547 185.415 33.9493 185.415 33.48V28.376H186.919V37H185.463V35.32L185.703 35.464C185.5 36.008 185.153 36.4347 184.663 36.744C184.183 37.0427 183.628 37.192 182.999 37.192ZM192.808 37.096C191.965 37.096 191.315 36.856 190.856 36.376C190.408 35.896 190.184 35.2187 190.184 34.344V29.8H188.616V28.376H188.936C189.32 28.376 189.624 28.2587 189.848 28.024C190.072 27.7893 190.184 27.48 190.184 27.096V26.392H191.672V28.376H193.608V29.8H191.672V34.296C191.672 34.584 191.715 34.8347 191.8 35.048C191.896 35.2613 192.051 35.432 192.264 35.56C192.477 35.6773 192.76 35.736 193.112 35.736C193.187 35.736 193.277 35.7307 193.384 35.72C193.501 35.7093 193.608 35.6987 193.704 35.688V37C193.565 37.032 193.411 37.0533 193.24 37.064C193.069 37.0853 192.925 37.096 192.808 37.096Z" fill="#514EB6"/>
<rect x="0.5" y="0.5" width="326" height="59" rx="29.5" stroke="#514EB6"/>
</svg>
