<svg width="24" height="24" viewBox="0 0 24 24" fill="none" xmlns="http://www.w3.org/2000/svg">
<path fill-rule="evenodd" clip-rule="evenodd" d="M19.84 18.1931C19.84 21.4891 15.32 21.8701 11.921 21.8701L11.6778 21.8699C9.5122 21.8646 4 21.7279 4 18.1731C4 14.9444 8.33835 14.5129 11.7115 14.4966L12.1642 14.4963C14.3296 14.5016 19.84 14.6383 19.84 18.1931ZM11.921 15.9961C7.66 15.9961 5.5 16.7281 5.5 18.1731C5.5 19.6311 7.66 20.3701 11.921 20.3701C16.181 20.3701 18.34 19.6381 18.34 18.1931C18.34 16.7351 16.181 15.9961 11.921 15.9961ZM11.921 1.9997C14.849 1.9997 17.23 4.3817 17.23 7.3097C17.23 10.2377 14.849 12.6187 11.921 12.6187H11.889C8.967 12.6097 6.6 10.2267 6.60997 7.3067C6.60997 4.3817 8.992 1.9997 11.921 1.9997ZM11.921 3.4277C9.78 3.4277 8.03798 5.1687 8.03798 7.3097C8.031 9.4437 9.76 11.1837 11.892 11.1917L11.921 11.9057V11.1917C14.061 11.1917 15.802 9.4497 15.802 7.3097C15.802 5.1687 14.061 3.4277 11.921 3.4277Z" fill="#BFC6CC"/>
</svg>
