<svg width="24" height="24" viewBox="0 0 24 24" fill="none" xmlns="http://www.w3.org/2000/svg">
<path fill-rule="evenodd" clip-rule="evenodd" d="M12.3749 2.00198C15.2949 2.00198 17.6729 4.37998 17.6729 7.30298L17.6728 8.87958C19.448 9.49739 20.725 11.1874 20.725 13.1708V17.4598C20.725 19.9648 18.688 22.0018 16.183 22.0018H8.542C6.037 22.0018 4 19.9648 4 17.4598V13.1708C4 11.1878 5.27652 9.49803 7.05121 8.87993L7.0519 7.30298C7.0579 5.86298 7.6149 4.53398 8.6199 3.53798C9.6259 2.54098 10.9539 1.96398 12.3749 2.00198ZM16.183 10.1288H8.542C6.864 10.1288 5.5 11.4928 5.5 13.1708V17.4598C5.5 19.1378 6.864 20.5018 8.542 20.5018H16.183C17.86 20.5018 19.225 19.1378 19.225 17.4598V13.1708C19.225 11.4928 17.86 10.1288 16.183 10.1288ZM12.3623 13.4546C12.7763 13.4546 13.1123 13.7906 13.1123 14.2046V16.4256C13.1123 16.8396 12.7763 17.1756 12.3623 17.1756C11.9483 17.1756 11.6123 16.8396 11.6123 16.4256V14.2046C11.6123 13.7906 11.9483 13.4546 12.3623 13.4546ZM12.3719 3.50198H12.3559C11.3429 3.50198 10.3939 3.89198 9.6769 4.60298C8.9549 5.31698 8.5559 6.26998 8.5519 7.28598L8.551 8.62821H16.172L16.1729 7.30298C16.1729 5.20698 14.4679 3.50198 12.3719 3.50198Z" fill="#111111"/>
</svg>
