<svg width="16" height="16" viewBox="0 0 16 16" fill="none" xmlns="http://www.w3.org/2000/svg">
<g clip-path="url(#clip0_217_1140)">
<path d="M8.00065 1.33337C6.68211 1.33337 5.39318 1.72437 4.29685 2.45691C3.20052 3.18945 2.34604 4.23064 1.84146 5.44882C1.33687 6.66699 1.20485 8.00744 1.46209 9.30064C1.71932 10.5938 2.35426 11.7817 3.28661 12.7141C4.21896 13.6464 5.40685 14.2814 6.70005 14.5386C7.99326 14.7958 9.3337 14.6638 10.5519 14.1592C11.7701 13.6547 12.8112 12.8002 13.5438 11.7038C14.2763 10.6075 14.6673 9.31858 14.6673 8.00004C14.6673 7.12456 14.4949 6.25766 14.1599 5.44882C13.8248 4.63998 13.3338 3.90505 12.7147 3.286C12.0956 2.66694 11.3607 2.17588 10.5519 1.84084C9.74304 1.50581 8.87613 1.33337 8.00065 1.33337ZM10.6673 8.66671H8.00065C7.82384 8.66671 7.65427 8.59647 7.52925 8.47145C7.40423 8.34642 7.33399 8.17685 7.33399 8.00004V5.33337C7.33399 5.15656 7.40423 4.98699 7.52925 4.86197C7.65427 4.73695 7.82384 4.66671 8.00065 4.66671C8.17746 4.66671 8.34703 4.73695 8.47206 4.86197C8.59708 4.98699 8.66732 5.15656 8.66732 5.33337V7.33337H10.6673C10.8441 7.33337 11.0137 7.40361 11.1387 7.52864C11.2637 7.65366 11.334 7.82323 11.334 8.00004C11.334 8.17685 11.2637 8.34642 11.1387 8.47145C11.0137 8.59647 10.8441 8.66671 10.6673 8.66671Z" fill="#434E58"/>
</g>
<defs>
<clipPath id="clip0_217_1140">
<rect width="16" height="16" fill="white"/>
</clipPath>
</defs>
</svg>
