<svg width="19" height="18" viewBox="0 0 19 18" fill="none" xmlns="http://www.w3.org/2000/svg">
<path d="M9.5 17.6223C9.22951 17.6223 8.96873 17.5238 8.7655 17.3447C7.99794 16.6698 7.25793 16.0355 6.60503 15.476L6.6017 15.473C4.68752 13.8326 3.03456 12.4158 1.88446 11.0203C0.598824 9.46009 0 7.98084 0 6.36484C0 4.79476 0.535332 3.34626 1.50728 2.28599C2.49082 1.21317 3.84039 0.622314 5.3078 0.622314C6.40456 0.622314 7.40897 0.971026 8.29308 1.65868C8.73926 2.00579 9.14369 2.4306 9.5 2.92612C9.85645 2.4306 10.2607 2.00579 10.7071 1.65868C11.5912 0.971026 12.5956 0.622314 13.6923 0.622314C15.1596 0.622314 16.5093 1.21317 17.4929 2.28599C18.4648 3.34626 19 4.79476 19 6.36484C19 7.98084 18.4013 9.46009 17.1157 11.0201C15.9656 12.4158 14.3128 13.8324 12.3989 15.4728C11.7448 16.0331 11.0037 16.6685 10.2344 17.345C10.0313 17.5238 9.77035 17.6223 9.5 17.6223ZM5.3078 1.74163C4.15495 1.74163 3.09588 2.20435 2.32542 3.04464C1.54352 3.89761 1.11285 5.0767 1.11285 6.36484C1.11285 7.72397 1.61513 8.9395 2.74131 10.3061C3.8298 11.627 5.44884 13.0146 7.32345 14.6212L7.32693 14.6242C7.98228 15.1859 8.7252 15.8226 9.49841 16.5026C10.2763 15.8213 11.0203 15.1835 11.677 14.6209C13.5514 13.0143 15.1703 11.627 16.2588 10.3061C17.3849 8.9395 17.8872 7.72397 17.8872 6.36484C17.8872 5.0767 17.4565 3.89761 16.6746 3.04464C15.9043 2.20435 14.8451 1.74163 13.6923 1.74163C12.8478 1.74163 12.0724 2.01162 11.3878 2.54402C10.7777 3.01869 10.3526 3.61873 10.1035 4.03858C9.97532 4.25449 9.74976 4.38336 9.5 4.38336C9.25024 4.38336 9.02468 4.25449 8.89654 4.03858C8.6475 3.61873 8.22248 3.01869 7.61221 2.54402C6.92757 2.01162 6.15218 1.74163 5.3078 1.74163Z" fill="#BFC6CC"/>
</svg>
