<svg width="24" height="24" viewBox="0 0 24 24" fill="none" xmlns="http://www.w3.org/2000/svg">
<g opacity="0.5">
<path d="M8.53477 4.97018C8.32697 4.96561 8.12291 5.02585 7.95095 5.14262C7.77899 5.25939 7.64769 5.42691 7.5753 5.62175C7.50291 5.81659 7.49302 6.02911 7.54701 6.22983C7.60101 6.43055 7.7162 6.60938 7.87657 6.7416L13.9957 11.9838L7.87657 17.2241C7.76563 17.3057 7.67272 17.4092 7.60366 17.5283C7.5346 17.6474 7.49088 17.7795 7.47523 17.9163C7.45958 18.0531 7.47234 18.1916 7.51272 18.3232C7.55309 18.4548 7.62021 18.5767 7.70987 18.6812C7.79952 18.7857 7.90979 18.8705 8.03375 18.9304C8.15772 18.9903 8.29272 19.0239 8.43029 19.0292C8.56787 19.0345 8.70506 19.0115 8.83327 18.9613C8.96149 18.9111 9.07796 18.835 9.1754 18.7378L16.1813 12.7435C16.2913 12.6497 16.3796 12.5331 16.4402 12.4018C16.5008 12.2704 16.5322 12.1275 16.5322 11.9829C16.5322 11.8382 16.5008 11.6953 16.4402 11.5639C16.3796 11.4326 16.2913 11.316 16.1813 11.2221L9.1754 5.22209C8.99842 5.06489 8.77142 4.97552 8.53477 4.96995V4.97018Z" fill="#111111"/>
</g>
</svg>
